<?xml version="1.0" encoding="utf-8"?>
<!-- Generator: Adobe Illustrator 23.0.1, SVG Export Plug-In . SVG Version: 6.00 Build 0)  -->
<svg version="1.1" id="Bold" xmlns="http://www.w3.org/2000/svg" xmlns:xlink="http://www.w3.org/1999/xlink" x="0px" y="0px"
	 viewBox="0 0 512 512" style="enable-background:new 0 0 512 512;" xml:space="preserve">
<style type="text/css">
	.st0{fill:#FFFFFF;}
</style>
<polygon class="st0" points="347.4,237.7 384,237.7 384,201.1 420.7,201.1 420.7,237.7 457,237.7 457,274.4 420.7,274.4 420.7,311 
	384,311 384,274.4 347.4,274.4 "/>
<path class="st0" d="M183,128c32.3,0,62,11.4,85.7,33.3L234,195c-13.6-13.3-32.3-19.7-51-19.7c-44.3,0-79.7,36.7-79.7,80.6
	s35.3,80.6,79.7,80.6c33.6,0,67-19.7,72.4-55H183v-44h120.7c1.3,7,2,14,2,21.4c0,73.1-49,125.1-122.6,125.1v0
	c-71,0-128-57.3-128-128S112,128,183,128L183,128z"/>
</svg>
