<svg xmlns="http://www.w3.org/2000/svg" width="299.89" height="394.59" viewBox="0 0 299.89 394.59">
  <title>Asset 1</title>
  <g id="Layer_2" data-name="Layer 2">
    <g id="Layer_1-2" data-name="Layer 1">
      <g>
        <path d="M90.2,17.43,87.93,16A8.62,8.62,0,0,0,76.06,18.8s-20,30.54-20,34.1S76.06,87,76.06,87a8.63,8.63,0,0,0,11.87,2.77l2.27-1.41A8.63,8.63,0,0,0,93,76.51L78.29,52.9,93,29.29A8.62,8.62,0,0,0,90.2,17.43Z" fill="#fffaf1"/>
        <path d="M160.82,0a25.19,25.19,0,0,0-25.19,25.19,25.88,25.88,0,0,0,.77,6.14l-21.22,26.4a9.5,9.5,0,0,0,.38,13.45l.83.77c3.77,3.58,9.26,2.79,13.32-.27l7.06-5.62V88H126.18a5.28,5.28,0,0,0,0,10.56H157.9a5.28,5.28,0,1,0,0-10.56H147.33V57.67c3.77-3,7.28-5.81,9.55-7.62a24.15,24.15,0,0,0,3.94.35,25.2,25.2,0,1,0,0-50.4Z" fill="#fffaf1"/>
        <path d="M221.78,18.8A8.62,8.62,0,0,0,209.91,16l-2.27,1.42a8.6,8.6,0,0,0-2.77,11.86L219.55,52.9,204.87,76.51a8.61,8.61,0,0,0,2.77,11.87l2.27,1.41A8.63,8.63,0,0,0,221.78,87s19.94-30.56,19.94-34.12S221.78,18.8,221.78,18.8Z" fill="#fffaf1"/>
        <text transform="translate(2.67 228.62)" font-size="121.61" fill="#fffaf1" font-family="Kufam-SemiBold, Kufam" font-weight="600">مَقام</text>
        <text transform="translate(5.75 312.86) scale(0.96 1)" font-size="81.07" fill="#fffaf1" font-family="Kufam-Regular, Kufam">maqam</text>
      </g>
    </g>
  </g>
</svg>
