<svg id="Layer_1" data-name="Layer 1" xmlns="http://www.w3.org/2000/svg" width="400" height="400" viewBox="0 0 400 400">
  <title>Artboard ١</title>
  <g>
    <path d="M142.84,54.93l-2.27-1.42A8.62,8.62,0,0,0,128.7,56.3s-20,30.54-20,34.1,20,34.13,20,34.13a8.64,8.64,0,0,0,11.87,2.76l2.27-1.41A8.64,8.64,0,0,0,145.6,114L130.93,90.4,145.6,66.79A8.63,8.63,0,0,0,142.84,54.93Z" fill="#af734a"/>
    <path d="M213.45,37.5a25.21,25.21,0,0,0-25.19,25.19,25.81,25.81,0,0,0,.77,6.14l-21.21,26.4a9.49,9.49,0,0,0,.37,13.45l.84.77c3.76,3.58,9.26,2.79,13.32-.27l7.06-5.62V125.5h-10.6a5.28,5.28,0,0,0,0,10.56h31.73a5.28,5.28,0,1,0,0-10.56H200V95.17c3.77-3,7.29-5.81,9.56-7.62a24,24,0,0,0,3.93.35,25.2,25.2,0,1,0,0-50.4Z" fill="#af734a"/>
    <path d="M274.41,56.3a8.61,8.61,0,0,0-11.86-2.79l-2.27,1.42a8.61,8.61,0,0,0-2.77,11.86L272.19,90.4,257.51,114a8.61,8.61,0,0,0,2.77,11.87l2.27,1.41a8.63,8.63,0,0,0,11.86-2.76S294.36,94,294.36,90.4,274.41,56.3,274.41,56.3Z" fill="#af734a"/>
    <text transform="translate(55.31 266.12)" font-size="121.61" fill="#af734a" font-family="Kufam-SemiBold, Kufam" font-weight="600">مَقام</text>
    <text transform="translate(58.39 350.37) scale(0.96 1)" font-size="81.07" fill="#af734a" font-family="Kufam-Medium, Kufam" font-weight="500">maqam</text>
  </g>
</svg>
