<?xml version="1.0" encoding="utf-8"?>
<!-- Generator: Adobe Illustrator 23.0.1, SVG Export Plug-In . SVG Version: 6.00 Build 0)  -->
<svg version="1.1" id="Capa_1" xmlns="http://www.w3.org/2000/svg" xmlns:xlink="http://www.w3.org/1999/xlink" x="0px" y="0px"
	 viewBox="0 0 512 512" style="enable-background:new 0 0 512 512;" xml:space="preserve">
<style type="text/css">
	.st0{fill:#3B271D;}
</style>
<g>
	<path class="st0" d="M431,240c0-8.3-6.7-15-15-15s-15,6.7-15,15c0,80-65,145-145,145s-145-65-145-145c0-8.3-6.7-15-15-15
		s-15,6.7-15,15c0,91.4,70.5,166.7,160,174.4V482h-81c-8.3,0-15,6.7-15,15s6.7,15,15,15h192c8.3,0,15-6.7,15-15s-6.7-15-15-15h-81
		v-67.6C360.5,406.7,431,331.4,431,240z"/>
	<path class="st0" d="M312,255c-8.3,0-15-6.7-15-15s6.7-15,15-15h55v-34h-71c-8.3,0-15-6.7-15-15s6.7-15,15-15h71v-34h-55
		c-8.3,0-15-6.7-15-15s6.7-15,15-15h54.6C362.1,42.7,316.9,0,262,0h-12c-54.9,0-100.1,42.7-104.6,97H200c8.3,0,15,6.7,15,15
		s-6.7,15-15,15h-55v34h71c8.3,0,15,6.7,15,15s-6.7,15-15,15h-71v34h55c8.3,0,15,6.7,15,15s-6.7,15-15,15h-54.6
		c4.6,53.7,49.7,96,104.6,96h12c54.9,0,100-42.3,104.6-96H312z"/>
</g>
</svg>
