<svg id="Capa_1" data-name="Capa 1" xmlns="http://www.w3.org/2000/svg" width="100" height="50" viewBox="0 0 512 512">
  <title>Artboard ูก</title>
  <path d="M264.89,18.32c-126.48,0-229,102.53-229,229s102.52,229,229,229,229-102.52,229-229S391.36,18.32,264.89,18.32Zm53.86,292.37q-8.87,13.13-26.37,20.62t-43.49,7.5a130.8,130.8,0,0,1-27.12-2.63,100,100,0,0,1-19.62-5.87v-36.5h2.75q5.25,3.51,16.87,7.5a78.23,78.23,0,0,0,25.62,4q13,0,21.25-3.25t12.24-8.87a22,22,0,0,0,4-13.12A20.52,20.52,0,0,0,277.64,264q-7.26-6.37-23.75-6.38H231.64l-6.75-15.75,41.63-51.24H202.9V155.84h113l3,2.5a21.84,21.84,0,0,1,1.25,4.5,27.27,27.27,0,0,1-1.88,16.37,47.15,47.15,0,0,1-7.37,10.87l-35.12,38.84A66,66,0,0,1,297,234.08q15.12,6.73,22.87,18.87a49.79,49.79,0,0,1,7.75,27.37Q327.63,297.57,318.75,310.69Z" fill="#3b271d"/>
</svg>
