<svg id="Capa_1" data-name="Capa 1" xmlns="http://www.w3.org/2000/svg" width="100" height="50" viewBox="0 0 100 50">
  <title>Artboard ูก</title>
  <g>
    <path d="M51.3,1.5A22.4,22.4,0,1,0,73.7,23.9,22.3,22.3,0,0,0,51.3,1.5Zm7.1,29.7H56.5v4.2H50.8V31.2H41.6V27.1l1.2-5.2a12.1,12.1,0,0,1,1.6-3.8,6.9,6.9,0,0,1,2.3-2.2,6.7,6.7,0,0,1,2.9-1,20.2,20.2,0,0,1,3.6-.3h1.9l1.5.2v.4c-.1.3-.1.8-.2,1.3v9.8h1.9Z" fill="#3b271d"/>
    <path d="M50.8,19.6a3,3,0,0,0-1.8.7,5.7,5.7,0,0,0-.8,1.9l-1,4.2h3.6V19.6Z" fill="#3b271d"/>
  </g>
</svg>
