<svg id="Capa_1" data-name="Capa 1" xmlns="http://www.w3.org/2000/svg" width="100" height="50" viewBox="0 0 512 512">
  <title>Artboard ูก</title>
  <g>
    <path d="M267,18.09c-126.47,0-229,102.52-229,229s102.53,229,229,229,229-102.53,229-229S393.5,18.09,267,18.09Zm76.61,335.22H190.42V310.12h52.82v-101c0-2.72.09-6,.29-9.92s.48-7.39.87-10.51a30,30,0,0,1,.73-4.08H196V145q4.66-.88,13.57-1.9t20.87-1.6q12-.58,26.55-.59a225.92,225.92,0,0,1,25.1,1.17,130.08,130.08,0,0,1,14.88,2.33l.59,3.5a87.08,87.08,0,0,0-1.61,14q-.44,8.76-.58,17.8t-.15,14.89V310.12h48.45Z" fill="#3b271d"/>
    <path d="M247.32,188.43l18.39-3.79H246.59A33.37,33.37,0,0,1,247.32,188.43Z" fill="#3b271d"/>
  </g>
</svg>
