<svg id="Capa_1" data-name="Capa 1" xmlns="http://www.w3.org/2000/svg" width="100" height="50" viewBox="0 0 512 512">
  <title>Artboard ูก</title>
  <path d="M269.52,15.42c-126.47,0-229,102.53-229,229s102.53,229,229,229,229-102.53,229-229S396,15.42,269.52,15.42ZM345.1,351.23H198.61Q196,346,195,336.93a145,145,0,0,1-1-16.05,85,85,0,0,1,6.13-32.69,66.7,66.7,0,0,1,19.4-26q13.28-11.09,35.17-17.22l12.55-3.5q13.71-4.08,20-11.82t6.27-20.28q0-13.71-9.63-21.89t-30.93-8.17a103.39,103.39,0,0,0-18.1,1.61A111.68,111.68,0,0,0,218.45,185a81.14,81.14,0,0,0-11.67,4.82h-3.21v-42q8.76-4.1,23.93-7.15A158.29,158.29,0,0,1,259,137.61q29.18,0,47.56,9.49t27.14,25.53a73.09,73.09,0,0,1,8.76,35.6q0,28-15.18,44.51t-44.94,25.53l-10.8,3.21q-15.75,4.09-22.9,13a31.77,31.77,0,0,0-6.6,15h103Z" fill="#3b271d"/>
</svg>
