<svg id="Capa_1" data-name="Capa 1" xmlns="http://www.w3.org/2000/svg" width="512" height="512" viewBox="0 0 512 512">
  <title>Artboard ูก</title>
  <g>
    <path d="M431,240a15,15,0,0,0-30,0,145,145,0,0,1-290,0,15,15,0,0,0-30,0c0,91.4,70.5,166.7,160,174.4V482H160a15,15,0,0,0,0,30H352a15,15,0,0,0,0-30H271V414.4C360.5,406.7,431,331.4,431,240Z" fill="#3b271d"/>
    <path d="M312,255a15,15,0,0,1,0-30h55V191H296a15,15,0,0,1,0-30h71V127H312a15,15,0,0,1,0-30h54.6C362.1,42.7,316.9,0,262,0H250C195.1,0,149.9,42.7,145.4,97H200a15,15,0,0,1,0,30H145v34h71a15,15,0,0,1,0,30H145v34h55a15,15,0,0,1,0,30H145.4A105.12,105.12,0,0,0,250,351h12a105.12,105.12,0,0,0,104.6-96Z" fill="#3b271d"/>
    <rect x="239.78" y="-17.64" width="30.03" height="554.37" rx="15.02" transform="translate(-105.73 211.5) rotate(-37.94)" fill="#3b271d"/>
  </g>
</svg>
