<?xml version="1.0" encoding="utf-8"?>
<!-- Generator: Adobe Illustrator 23.0.1, SVG Export Plug-In . SVG Version: 6.00 Build 0)  -->
<svg version="1.1" id="Capa_1" xmlns="http://www.w3.org/2000/svg" xmlns:xlink="http://www.w3.org/1999/xlink" x="0px" y="0px"
	 viewBox="0 0 438.5 438.5" style="enable-background:new 0 0 438.5 438.5;" xml:space="preserve">
<style type="text/css">
	.st0{fill:#FFFFFF;}
</style>
<path class="st0" d="M335.5,168.7c0.2,1.7,0.3,4.3,0.3,7.7c0,16-2.3,32-7,48.1c-4.7,16.1-11.8,31.5-21.4,46.3
	c-9.6,14.7-21.1,27.8-34.4,39.1c-13.3,11.3-29.3,20.4-48,27.1c-18.6,6.8-38.6,10.1-60,10.1c-33.1,0-63.8-9-91.9-26.8
	c4.6,0.6,9.3,0.9,14.3,0.9c27.6,0,52.4-8.6,74.5-25.7c-12.9-0.2-24.5-4.2-34.7-12c-10.2-7.8-17.3-17.7-21.3-29.7
	c4.9,0.8,8.7,1.1,11.1,1.1c4.2,0,9-0.8,14.6-2.3c-13.9-2.7-25.6-9.6-35.1-20.7c-9.5-11.1-14.3-23.8-14.3-38.1v-0.6
	c10.1,4.8,19.6,7.2,28.5,7.4c-17.3-11.6-26-28.3-26-50c0-10.7,2.8-20.7,8.3-30.3c15,18.5,33.3,33.2,54.8,44.3
	c21.5,11,44.5,17.2,69.1,18.6c-0.9-3.6-1.4-8.2-1.4-13.7c0-16.6,5.9-30.7,17.6-42.4c11.7-11.7,25.8-17.6,42.4-17.6
	c17.5,0,32.1,6.3,43.7,18.8c13.1-2.5,25.9-7.3,38.3-14.6c-4.8,14.7-13.6,25.8-26.5,33.4c12.4-1.7,23.9-4.9,34.5-9.7
	C357.5,149.8,347.5,160.2,335.5,168.7z"/>
</svg>
