<svg id="Capa_1" data-name="Capa 1" xmlns="http://www.w3.org/2000/svg" width="438.5" height="438.5" viewBox="0 0 438.5 438.5">
  <title>Artboard ูก</title>
  <path d="M259,63.4h19.1V141c0,4.6.1,7,.3,7.4.2,3,1.7,4.6,4.6,4.6,3.8,0,7.8-3,12-8.9V63.4h19.1V169H294.9V157.6c-7.8,8.6-15.1,12.8-22,12.9-6.1,0-10.2-2.6-12.3-7.7-1.1-3.4-1.7-8.7-1.7-15.7l.1-83.7Z" fill="#fff"/>
  <path d="M135.3,27.1l15.1,55.7L165,27.1h21.4l-25.7,84.5h0V169H139.6V111.6c-2.1-10.5-6.5-25.5-13.1-45.1l-6.6-19.7L113,27.1Z" fill="#fff"/>
  <g>
    <path d="M333.7,290.9c0-9.7-3.1-14.6-9.4-14.6s-9.4,4.9-9.4,14.6v9.7h18.8Z" fill="#fff"/>
    <path d="M371,223.3a39.59,39.59,0,0,0-12.3-21,38.45,38.45,0,0,0-21.7-9.9q-38.85-4.35-117.6-4.3-78.6,0-117.4,4.3a38.74,38.74,0,0,0-21.8,9.9,39.64,39.64,0,0,0-12.1,21c-3.8,16.5-5.7,41.3-5.7,74.2q0,50.25,5.7,74.2a40,40,0,0,0,12.1,20.9,37.65,37.65,0,0,0,21.6,10c26,2.9,65.3,4.3,117.6,4.3s91.5-1.4,117.6-4.3a37.38,37.38,0,0,0,21.5-10,40.41,40.41,0,0,0,12.1-20.9q5.7-24,5.8-74.2Q376.4,247,371,223.3ZM151.9,244.7H129V365.4H107.9V244.7H85.7v-20h66.2Zm57.3,120.7H190.1V354c-7.4,8.5-14.7,12.8-21.7,12.8-6.3,0-10.3-2.7-12-8-1.1-3-1.7-8.2-1.7-15.4V260.6h18.8v77.1c0,4.5.1,7,.3,7.4.2,2.9,1.6,4.3,4.3,4.3,3.8,0,7.8-2.9,12-8.8V260.7h19.1Zm72-31.4c0,9.9-.7,16.8-2,20.8-2.3,8-7.3,12-15.1,12-6.7,0-13.1-3.9-19.4-11.7v10.3H225.6V224.6h19.1v46c6.1-7.6,12.5-11.4,19.4-11.4,7.8,0,12.8,4,15.1,12,1.3,4,2,11,2,21.1Zm71.9-2.3a101.31,101.31,0,0,1-.6,12.3,27.27,27.27,0,0,1-4.3,11.4c-5.2,7.6-12.8,11.4-22.9,11.4-9.9,0-17.6-3.7-23.1-10.9-4-5.1-6-13.3-6-24.5V294.6c0-11.2,1.9-19.4,5.7-24.5,5.5-7.3,13.1-10.9,22.8-10.9s17.2,3.7,22.3,10.9c4,5.3,6,13.5,6,24.5v21.7H315v18.5c0,9.7,3.2,14.6,9.7,14.6,4.6,0,7.5-2.4,8.6-7.4,0-.2,0-.9.1-2s.1-2.7.1-4.7l.1-6.2h19.5Z" fill="#fff"/>
  </g>
  <path d="M237.3,72.9C231.8,65.6,224.3,62,215,62c-9.7,0-17.1,3.6-22.3,10.8-4,5.5-6,13.8-6,24.8v37.2c0,11,2,19.3,6,24.8,5.2,7.3,12.6,10.9,22.3,10.9,9.4-.1,16.8-3.7,22.3-10.9,4-5.1,6-13.4,6-24.8V97.7C243.3,86.7,241.3,78.4,237.3,72.9Zm-13.2,65.5c0,9.7-3,14.6-9.1,14.6s-9.1-4.8-9.1-14.6V93.9c0-9.8,3-14.8,9.1-14.8s9.1,4.9,9.1,14.8Z" fill="#fff"/>
  <path id="white" d="M262.4,335.5c0,9.3-2.8,14-8.3,14-3.2,0-6.4-1.5-9.4-4.6v-64c3-3,6.2-4.6,9.4-4.6,5.5,0,8.3,4.8,8.3,14.3Z" fill="#fff"/>
</svg>
